<svg xmlns="http://www.w3.org/2000/svg" width="30.881" height="35.293" viewBox="0 0 30.881 35.293"><defs><style>.a{fill:#fff;}</style></defs><g transform="translate(-32.005)"><g transform="translate(32.005)"><g transform="translate(0)"><path class="a" d="M48.01,73.653a9.552,9.552,0,0,1,9.519-15.88.72.72,0,0,0,.648-.115.733.733,0,0,0,.3-.59v-12.2a2.206,2.206,0,0,0-2.2-2.206H54.8a.736.736,0,0,0-.735.735v1.471a2.208,2.208,0,0,1-2.206,2.206H38.622a2.208,2.208,0,0,1-2.206-2.206V43.4a.736.736,0,0,0-.735-.735H34.211A2.208,2.208,0,0,0,32,44.872v27.94a2.208,2.208,0,0,0,2.206,2.206H47.6a.2.2,0,0,0,.029,0,.736.736,0,0,0,.381-1.365Z" transform="translate(-32.005 -39.725)"/><path class="a" d="M118.074,5.882h13.235a.736.736,0,0,0,.735-.735V3.676a2.208,2.208,0,0,0-2.206-2.206H127.23a2.926,2.926,0,0,0-5.076,0h-2.609a2.208,2.208,0,0,0-2.206,2.206V5.147A.735.735,0,0,0,118.074,5.882Z" transform="translate(-111.457)"/><path class="a" d="M253.426,277.333a8.088,8.088,0,1,0,8.088,8.088A8.1,8.1,0,0,0,253.426,277.333Zm3.462,7.138a.738.738,0,0,1-1.041,0l-1.685-1.687v7.048a.735.735,0,1,1-1.471,0v-7.048l-1.685,1.685a.735.735,0,0,1-1.04-1.04l2.94-2.94a.762.762,0,0,1,.24-.16.729.729,0,0,1,.562,0,.7.7,0,0,1,.24.16l2.94,2.94A.736.736,0,0,1,256.888,284.471Z" transform="translate(-230.633 -258.216)"/></g></g></g></svg>