<svg xmlns="http://www.w3.org/2000/svg" width="32.815" height="37.503" viewBox="0 0 32.815 37.503"><defs><style>.a{fill:#fff;}</style></defs><g transform="translate(8 58)"><g transform="translate(-8 -58)"><path class="a" d="M260.178,257.562h-5.469v-.781a.781.781,0,1,0-1.563,0v.781h-5.469a2.347,2.347,0,0,0-2.344,2.344v1.563a.782.782,0,0,0,.781.781h.914l2.225,11.863a.78.78,0,0,0,.767.638h7.813a.78.78,0,0,0,.767-.638l2.225-11.863h.914a.782.782,0,0,0,.781-.781v-1.563A2.347,2.347,0,0,0,260.178,257.562Zm-7.716,14.057c-.033,0-.066.006-.1.006a.78.78,0,0,1-.773-.684l-.781-6.25a.781.781,0,0,1,.678-.872.79.79,0,0,1,.873.678l.781,6.25A.783.783,0,0,1,252.462,271.619Zm4.586-6.929-.783,6.25a.78.78,0,0,1-.773.684.692.692,0,0,1-.1-.006.782.782,0,0,1-.678-.872l.781-6.25a.782.782,0,0,1,1.552.194Z" transform="translate(-229.707 -237.248)"/><path class="a" d="M48.107,27a.783.783,0,0,0-.5-.589,2.344,2.344,0,0,1-1.544-2.191V22.658a3.911,3.911,0,0,1,3.906-3.907h3.558a.78.78,0,0,0,.675-.389,2.321,2.321,0,0,1,4.035,0,.78.78,0,0,0,.675.389h2a.782.782,0,0,0,.781-.781V2.344A2.347,2.347,0,0,0,59.346,0h-.781V5.469a2.344,2.344,0,1,1-3.125-2.2v2.2a.781.781,0,0,0,1.563,0V0H52.314V5.469a2.344,2.344,0,1,1-3.125-2.2v2.2a.781.781,0,1,0,1.563,0V0H46.063V5.469a2.344,2.344,0,1,1-3.125-2.2v2.2a.781.781,0,0,0,1.563,0V0H39.813V5.469a2.344,2.344,0,1,1-3.125-2.2v2.2a.781.781,0,0,0,1.563,0V0H34.344A2.347,2.347,0,0,0,32,2.344V32.033a2.347,2.347,0,0,0,2.344,2.344h14.2a.781.781,0,0,0,.767-.927Z" transform="translate(-32 0)"/></g></g></svg>