<svg xmlns="http://www.w3.org/2000/svg" width="39.417" height="43" viewBox="0 0 39.417 43"><defs><style>.a{fill:#fff;}</style></defs><g transform="translate(-21.333)"><g transform="translate(21.333)"><path class="a" d="M265.854,277.333a9.854,9.854,0,1,0,9.854,9.854A9.865,9.865,0,0,0,265.854,277.333Zm3.583,10.75H266.75v2.688a.9.9,0,1,1-1.792,0v-2.687h-2.687a.9.9,0,1,1,0-1.792h2.688V283.6a.9.9,0,1,1,1.792,0v2.688h2.688a.9.9,0,1,1,0,1.792Z" transform="translate(-236.292 -254.041)"/><path class="a" d="M39.251,33.146A11.635,11.635,0,0,1,54.224,21.989a.885.885,0,0,0,.79-.14.9.9,0,0,0,.36-.718V2.688A2.691,2.691,0,0,0,52.687,0h-.9V6.271a2.688,2.688,0,1,1-3.583-2.523V6.271a.9.9,0,1,0,1.792,0V0H44.625V6.271a2.688,2.688,0,1,1-3.583-2.523V6.271a.9.9,0,0,0,1.792,0V0H37.458V6.271a2.688,2.688,0,1,1-3.583-2.523V6.271a.9.9,0,1,0,1.792,0V0H30.291V6.271a2.688,2.688,0,1,1-3.583-2.523V6.271a.9.9,0,1,0,1.792,0V0H24.021a2.691,2.691,0,0,0-2.687,2.688V36.729a2.691,2.691,0,0,0,2.688,2.688H39.578a.9.9,0,0,0,.81-1.281A11.52,11.52,0,0,1,39.251,33.146Z" transform="translate(-21.333)"/></g></g></svg>