<svg xmlns="http://www.w3.org/2000/svg" width="33.333" height="40" viewBox="0 0 33.333 40"><defs><style>.a{fill:#fff;}</style></defs><g transform="translate(-42.667)"><g transform="translate(42.667)"><path class="a" d="M73.5,0H45.167a2.5,2.5,0,0,0-2.5,2.5V8.333H48.5a.833.833,0,0,0,0-1.667H46.154A2.5,2.5,0,1,1,48.5,10H42.667v6.667H48.5A.833.833,0,1,0,48.5,15H46.154A2.5,2.5,0,1,1,48.5,18.333H42.667V25H48.5a.833.833,0,0,0,0-1.667H46.154A2.5,2.5,0,1,1,48.5,26.667H42.667v6.667H48.5a.833.833,0,1,0,0-1.667H46.154A2.5,2.5,0,1,1,48.5,35H42.667v2.5a2.5,2.5,0,0,0,2.5,2.5H73.5A2.5,2.5,0,0,0,76,37.5V2.5A2.5,2.5,0,0,0,73.5,0ZM66.834,31.667H55.167a.833.833,0,1,1,0-1.667H66.834a.833.833,0,1,1,0,1.667ZM70.167,25h-15a.833.833,0,0,1,0-1.667h15a.833.833,0,0,1,0,1.667Zm0-6.667h-15a.833.833,0,1,1,0-1.667h15a.833.833,0,1,1,0,1.667Zm0-6.667h-15a.833.833,0,1,1,0-1.667h15a.833.833,0,1,1,0,1.667Z" transform="translate(-42.667)"/></g></g></svg>